HIERARCHY
ROOT Hips
{
	OFFSET 0.00000 0.00000 0.00000
	CHANNELS 6 Xposition Yposition Zposition Zrotation Yrotation Xrotation 
	JOINT LHipJoint
	{
		OFFSET 0 0 0
		CHANNELS 3 Zrotation Yrotation Xrotation
		JOINT LeftHip
		{
			OFFSET 1.37590 -1.78394 0.89329
			CHANNELS 3 Zrotation Yrotation Xrotation
			JOINT LeftKnee
			{
				OFFSET 2.47928 -6.81178 0.00000
				CHANNELS 3 Zrotation Yrotation Xrotation
				JOINT LeftAnkle
				{
					OFFSET 2.63345 -7.23535 0.00000
					CHANNELS 3 Zrotation Yrotation Xrotation
					JOINT LeftToe
					{
						OFFSET 0.23938 -0.65768 2.27012
						CHANNELS 3 Zrotation Yrotation Xrotation
						End Site
						{
							OFFSET 0.00000 -0.00000 1.18363
						}
					}
				}
			}
		}
	}
	JOINT RHipJoint
	{
		OFFSET 0 0 0
		CHANNELS 3 Zrotation Yrotation Xrotation
		JOINT RightHip
		{
			OFFSET -1.33617 -1.78394 0.89329
			CHANNELS 3 Zrotation Yrotation Xrotation
			JOINT RightKnee
			{
				OFFSET -2.56922 -7.05888 0.00000
				CHANNELS 3 Zrotation Yrotation Xrotation
				JOINT RightAnkle
				{
					OFFSET -2.56568 -7.04915 0.00000
					CHANNELS 3 Zrotation Yrotation Xrotation
					JOINT RightToe
					{
						OFFSET -0.27533 -0.75646 2.18105
						CHANNELS 3 Zrotation Yrotation Xrotation
						End Site
						{
							OFFSET -0.00000 -0.00000 1.15233
						}
					}
				}
			}
		}
	}
	JOINT lowerback
	{
		OFFSET 0 0 0
		CHANNELS 3 Zrotation Yrotation Xrotation
		JOINT Chest
		{
			OFFSET 0.06190 2.15152 -0.00935
			CHANNELS 3 Zrotation Yrotation Xrotation
			JOINT Chest2
			{
				OFFSET 0.06334 2.15332 0.00872
				CHANNELS 3 Zrotation Yrotation Xrotation
				JOINT lowerneck
				{
					OFFSET 0 0 0
					CHANNELS 3 Zrotation Yrotation Xrotation
					JOINT Neck
					{
						OFFSET -0.04202 1.66908 0.23524
						CHANNELS 3 Zrotation Yrotation Xrotation
						JOINT Head
						{
							OFFSET 0.07510 1.69357 -0.24440
							CHANNELS 3 Zrotation Yrotation Xrotation
							End Site
							{
								OFFSET 0.02556 1.71719 -0.11000
							}
						}
					}
				}
				JOINT LeftCollar
				{
					OFFSET 0 0 0
					CHANNELS 3 Zrotation Yrotation Xrotation
					JOINT LeftShoulder
					{
						OFFSET 3.67168 1.26306 -0.41342
CHANNELS 3 Zrotation Xrotation Yrotation
						JOINT LeftElbow
						{
OFFSET 0 -4.685100 -0.000000
CHANNELS 3 Zrotation Xrotation Yrotation
							JOINT LeftWrist
							{
OFFSET 0 -3.396260 -0.000000
CHANNELS 3 Zrotation Xrotation Yrotation
								JOINT lhand
								{
									OFFSET 0 0 0
CHANNELS 3 Zrotation Xrotation Yrotation
									JOINT LFingers
									{
OFFSET 0 -0.486080 -0.000000
CHANNELS 3 Zrotation Xrotation Yrotation
										End Site
										{
OFFSET 0 -0.391890 -0.000000
										}
									}
								}
								JOINT LThumb
								{
OFFSET 0 0.000000 0.000000
CHANNELS 3 Zrotation Xrotation Yrotation
									End Site
									{
OFFSET 0 -0.397870 0.397870
									}
								}
							}
						}
					}
				}
				JOINT RightCollar
				{
					OFFSET 0 0 0
					CHANNELS 3 Zrotation Yrotation Xrotation
					JOINT RightShoulder
					{
						OFFSET -3.04136 1.42992 -0.76390
CHANNELS 3 Zrotation Xrotation Yrotation
						JOINT RightElbow
						{
OFFSET 0 -5.555760 -0.000000
CHANNELS 3 Zrotation Xrotation Yrotation
							JOINT RightWrist
							{
OFFSET 0 -3.327740 -0.000000
CHANNELS 3 Zrotation Xrotation Yrotation
								JOINT rhand
								{
									OFFSET 0 0 0
CHANNELS 3 Zrotation Xrotation Yrotation
									JOINT RFingers
									{
OFFSET 0 -0.507630 -0.000000
CHANNELS 3 Zrotation Xrotation Yrotation
										End Site
										{
OFFSET 0 -0.409260 -0.000000
										}
									}
								}
								JOINT RThumb
								{
OFFSET 0 0.000000 0.000000
CHANNELS 3 Zrotation Xrotation Yrotation
									End Site
									{
OFFSET 0 -0.415510 0.415510
									}
								}
							}
						}
					}
				}
			}
		}
	}
}
MOTION
Frames: 6
Frame Time: 0.008333333333333333
10.945782 18.076518 5.264793 -504.406347 -95.456858 504.207050 0.000000 0.000000 0.000000 -27.138113 -2.584430 7.445753 0.942643 6.183800 17.318641 0.159337 -9.010824 -8.926161 0.087695 -1.908323 -5.252330 0.000000 0.000000 0.000000 4.720001 13.078414 -81.301628 -18.558126 -19.948527 85.780543 129.289415 47.391547 162.156858 -0.119553 -2.228736 6.138297 -5.376881 -4.732332 5.389803 1.737808 -6.650949 -2.245026 5.381578 -3.114779 -4.536641 -5.076973 -2.390854 -22.752987 6.411203 -3.103516 17.606251 2.615701 -1.061620 9.486983 0.000000 0.000000 0.000000 6.979697 -30.461486 -51.792993 53.492519 -54.310539 28.987679 16.357638 -1.458187 -6.525368 0.000000 0.000000 0.000000 -7.125000 0.000000 0.000000 -8.768940 36.654344 -1.817094 0.000000 0.000000 0.000000 -24.346834 42.126449 36.523420 -41.167837 -48.746789 -19.312728 -16.104162 -1.400275 9.184608 0.000000 0.000000 0.000000 7.125000 0.000000 0.000000 9.415946 39.364712 1.321207
10.775222 18.063174 5.254476 -502.625699 -95.409312 502.697546 0.000000 0.000000 0.000000 -27.118227 -2.479240 7.686338 0.947990 6.200824 17.368110 0.143726 -9.316295 -8.846846 0.112659 -2.162263 -5.954345 0.000000 0.000000 0.000000 5.011860 13.067270 -80.515996 -19.356937 -19.988828 88.119358 109.635940 62.464161 140.723581 -0.125176 -2.280498 6.281480 -5.395708 -4.716046 5.219241 1.705823 -6.624133 -2.284684 5.341796 -3.102864 -4.486897 -5.073092 -2.389292 -22.743726 6.406400 -3.093052 17.466651 2.613094 -1.057364 9.435585 0.000000 0.000000 0.000000 7.074479 -30.366891 -51.405866 53.553367 -54.331846 29.037139 16.338542 -1.467962 -6.509477 0.000000 0.000000 0.000000 -7.125000 0.000000 0.000000 -8.782597 36.636861 -1.823773 0.000000 0.000000 0.000000 -24.277953 41.603891 36.628952 -41.305539 -48.824589 -19.416271 -16.201333 -1.453792 9.314744 0.000000 0.000000 0.000000 7.125000 0.000000 0.000000 9.355927 39.505545 1.279899
10.601960 18.046967 5.243650 -500.967402 -95.369772 501.338289 0.000000 0.000000 0.000000 -27.094940 -2.381085 7.930548 0.949802 6.206491 17.384774 0.130060 -9.602003 -8.793584 0.139553 -2.406942 -6.631718 0.000000 0.000000 0.000000 5.306515 13.022122 -79.542742 -19.734024 -19.998207 89.222252 17.049468 70.268590 96.436258 -0.133260 -2.353128 6.482691 -5.400462 -4.689471 5.010884 1.674439 -6.580878 -2.335133 5.290853 -3.083358 -4.430584 -5.093181 -2.407060 -22.716524 6.410355 -3.104277 17.325595 2.614362 -1.064162 9.382581 0.000000 0.000000 0.000000 7.096748 -30.201684 -51.105636 53.562059 -54.334924 29.044233 16.328847 -1.505567 -6.508069 0.000000 0.000000 0.000000 -7.125000 0.000000 0.000000 -8.790539 36.634883 -1.825914 0.000000 0.000000 0.000000 -24.111494 41.022518 36.678166 -41.417804 -48.887858 -19.500796 -16.351062 -1.516474 9.378536 0.000000 0.000000 0.000000 7.125000 0.000000 0.000000 9.238809 39.582706 1.245857
10.425250 18.027843 5.232147 -499.469698 -95.351989 500.175078 0.000000 0.000000 0.000000 -27.076119 -2.291672 8.173717 0.948372 6.201995 17.371706 0.118572 -9.869942 -8.769415 0.167801 -2.637843 -7.271971 0.000000 0.000000 0.000000 5.584238 12.932901 -78.376163 -19.526697 -19.993812 88.616096 -149.254599 63.056357 51.803534 -0.146107 -2.463110 6.787480 -5.402418 -4.655162 4.756086 1.643419 -6.524979 -2.399300 5.234651 -3.057927 -4.364200 -5.134593 -2.445116 -22.674790 6.420020 -3.138649 17.190125 2.617796 -1.082909 9.331005 0.000000 0.000000 0.000000 7.036129 -29.957038 -50.895620 53.507595 -54.315827 28.999944 16.319155 -1.519757 -6.524696 0.000000 0.000000 0.000000 -7.125000 0.000000 0.000000 -8.800998 36.651459 -1.824522 0.000000 0.000000 0.000000 -23.851478 40.382166 36.684061 -41.516052 -48.942858 -19.574860 -16.520366 -1.592694 9.404551 0.000000 0.000000 0.000000 7.125000 0.000000 0.000000 9.097915 39.622850 1.217363
10.244848 18.006246 5.219534 -498.204295 -95.363373 499.275070 0.000000 0.000000 0.000000 -27.059534 -2.210267 8.416252 0.944729 6.190312 17.337575 0.108986 -10.133880 -8.776459 0.197775 -2.862484 -7.896239 0.000000 0.000000 0.000000 5.845792 12.793417 -77.026238 -18.771888 -19.960685 86.406646 -168.783282 47.828721 31.265353 -0.166156 -2.625137 7.236853 -5.410890 -4.619334 4.464164 1.615660 -6.465952 -2.477088 5.182632 -3.030884 -4.290300 -5.197479 -2.496841 -22.619112 6.439433 -3.187901 17.057566 2.626119 -1.109080 9.279578 0.000000 0.000000 0.000000 6.898510 -29.629958 -50.762382 53.391673 -54.275066 28.905780 16.328031 -1.433723 -6.560156 0.000000 0.000000 0.000000 -7.125000 0.000000 0.000000 -8.798793 36.688377 -1.815991 0.000000 0.000000 0.000000 -23.516599 39.677315 36.665296 -41.581384 -48.979342 -19.624120 -16.720151 -1.685061 9.321929 0.000000 0.000000 0.000000 7.125000 0.000000 0.000000 8.911513 39.553757 1.207181
10.060832 17.982286 5.205739 -497.286217 -95.397855 498.742639 0.000000 0.000000 0.000000 -27.030111 -2.138691 8.665262 0.938999 6.172184 17.284712 0.100027 -10.398847 -8.798712 0.228237 -3.074591 -8.486587 0.000000 0.000000 0.000000 6.111319 12.603483 -75.508593 -17.645457 -19.864619 83.100571 -176.709325 30.570354 21.007990 -0.195250 -2.844853 7.847071 -5.419592 -4.585369 4.140779 1.593560 -6.407934 -2.565230 5.134563 -3.004494 -4.208580 -5.271121 -2.556041 -22.552361 6.464882 -3.246152 16.927265 2.637054 -1.139707 9.228048 0.000000 0.000000 0.000000 6.694485 -29.221981 -50.690503 53.217790 -54.213615 28.764703 16.351945 -1.244414 -6.605319 0.000000 0.000000 0.000000 -7.125000 0.000000 0.000000 -8.785443 36.736180 -1.802829 0.000000 0.000000 0.000000 -23.115365 38.911499 36.624517 -41.611664 -48.996234 -19.646987 -16.923207 -1.783854 9.144947 0.000000 0.000000 0.000000 7.125000 0.000000 0.000000 8.706275 39.387622 1.214784
